<svg xmlns="http://www.w3.org/2000/svg" viewBox="0 0 24 24"><path d="M7 12a5 5 0 1 1 5 5 5 5 0 0 1-5-5zm5-7a1 1 0 0 0 1-1V3a1 1 0 0 0-2 0v1a1 1 0 0 0 1 1zm-1 15v1a1 1 0 0 0 2 0v-1a1 1 0 0 0-2 0zm10-9h-1a1 1 0 0 0 0 2h1a1 1 0 0 0 0-2zM3 13h1a1 1 0 0 0 0-2H3a1 1 0 0 0 0 2zm14.657-5.657a1 1 0 0 0 .707-.293l.707-.707a1 1 0 1 0-1.414-1.414l-.707.707a1 1 0 0 0 .707 1.707zM5.636 16.95l-.707.707a1 1 0 1 0 1.414 1.414l.707-.707a1 1 0 0 0-1.414-1.414zm11.314 0a1 1 0 0 0 0 1.414l.707.707a1 1 0 0 0 1.414-1.414l-.707-.707a1 1 0 0 0-1.414 0zM5.636 7.05A1 1 0 0 0 7.05 5.636l-.707-.707a1 1 0 0 0-1.414 1.414z"/></svg>