<svg xmlns="http://www.w3.org/2000/svg" xml:space="preserve" width="2048" height="2048" fill="#4e596b" style="shape-rendering:geometricPrecision;text-rendering:geometricPrecision;image-rendering:optimizeQuality;fill-rule:evenodd;clip-rule:evenodd"><defs><style>.fil0,.fil1{fill:#212121;fill-rule:nonzero}.fil1{fill:#66bb6a}</style></defs><g id="Layer_x0020_1"><g id="_475131528"><path id="_475132344" class="fil0" d="M1024 255.998c152.153 0 289.904 61.675 389.615 161.386 99.711 99.71 161.386 237.462 161.386 389.614s-61.675 289.904-161.386 389.615c-99.711 99.711-237.462 161.386-389.615 161.386-152.152 0-289.903-61.675-389.614-161.386C534.675 1096.902 473 959.15 473 806.998c0-152.152 61.675-289.904 161.386-389.614C734.097 317.673 871.848 255.998 1024 255.998zm355.677 195.324c-91.023-91.023-216.775-147.324-355.677-147.324-138.901 0-264.653 56.3-355.676 147.324C577.301 542.344 521 668.097 521 806.998c0 138.901 56.3 264.655 147.324 355.677 91.023 91.023 216.775 147.324 355.676 147.324 138.902 0 264.655-56.3 355.677-147.324 91.023-91.023 147.324-216.776 147.324-355.677s-56.3-264.655-147.324-355.676z"/><path id="_475132392" class="fil0" d="M693.644 1231.93c-1.812 13.098 7.34 25.188 20.438 27 13.098 1.812 25.188-7.34 27-20.438 5.891-42.528 27.372-80.323 58.46-107.408 30.626-26.68 70.578-42.888 114.119-42.888h18.602c12.95 9.775 26.565 17.745 40.73 23.464 16.433 6.633 33.494 10.274 51.008 10.274 17.513 0 34.574-3.641 51.007-10.275 14.167-5.718 27.782-13.687 40.731-23.463h18.602c43.155 0 82.788 15.93 113.308 42.202 30.999 26.682 52.59 63.976 58.933 106.041 1.967 13.098 14.183 22.123 27.281 20.157 13.099-1.967 22.123-14.183 20.157-27.281-8.107-53.755-35.603-101.332-75.058-135.292-38.927-33.51-89.51-53.827-144.621-53.827H1107.575a23.907 23.907 0 0 0-15.222 5.445l15.222 18.555-15.188-18.469c-11.265 9.242-23.055 16.595-35.192 21.494-10.736 4.335-21.842 6.713-33.194 6.713-11.353 0-22.459-2.378-33.194-6.712-11.612-4.688-22.906-11.62-33.728-20.307a23.913 23.913 0 0 0-16.653-6.719h-26.765c-55.58 0-106.558 20.673-145.618 54.702-39.531 34.44-66.864 82.652-74.399 137.033z"/><path id="_475132176" class="fil0" d="M1024 507.995c64.561 0 123.3 15.757 165.125 49.201 39.03 31.21 62.86 76.75 62.86 137.915 0 65.697-28.783 153.497-74.33 219.577-39.982 58.006-93.465 100.365-153.655 100.365s-113.673-42.359-153.654-100.365c-45.548-66.079-74.332-153.88-74.332-219.577 0-61.166 23.83-106.704 62.861-137.915C900.7 523.752 959.44 507.995 1024 507.995zm135.312 86.515c-32.74-26.18-81.001-38.515-135.312-38.515-54.31 0-102.572 12.334-135.312 38.515-27.738 22.18-44.674 55.326-44.674 100.602 0 57.07 25.444 133.977 65.707 192.39 31.69 45.976 71.922 79.552 114.279 79.552s82.589-33.576 114.279-79.552c40.263-58.413 65.707-135.32 65.707-192.39 0-45.276-16.936-78.42-44.674-100.602z"/><g><path id="_475131216" class="fil1" d="M660.378 1372c49.695 0 89.148 12.704 120.563 34.552 27.066 18.822 47.672 44.215 63.383 73.949h636.298c6.715 0 12.786 2.76 17.142 7.206l91.233 76.805-15.375 18.28 15.456-18.36c10.14 8.536 11.44 23.677 2.904 33.817a24.036 24.036 0 0 1-4.768 4.328l-91.377 75.37.056.069a23.902 23.902 0 0 1-15.36 5.485h-51.113c-6.68 0-12.72-2.73-17.07-7.133l-10.54-10.54-10.64 10.642a23.921 23.921 0 0 1-16.97 7.03h-63.517c-6.679 0-12.719-2.729-17.07-7.132l-61.26-61.26-61.361 61.362h.001a23.921 23.921 0 0 1-16.97 7.03h-58.142c-6.68 0-12.72-2.729-17.07-7.132l-24.589-24.588-24.691 24.69-16.969-16.97 16.97 16.972a23.919 23.919 0 0 1-16.97 7.029H957.11c-6.679 0-12.719-2.73-17.07-7.133l-24.588-24.588-24.691 24.69-16.97-16.97 16.97 16.972a23.921 23.921 0 0 1-16.97 7.029h-29.467c-15.71 29.734-36.316 55.127-63.382 73.949-31.415 21.847-70.869 34.55-120.563 34.55-52.402 0-106.934-25.045-147.077-65.188-37.522-37.521-62.924-88.457-62.924-144.812 0-56.354 25.402-107.29 62.924-144.812 40.144-40.143 94.675-65.189 147.077-65.189zm93.188 73.928c-23.573-16.394-53.992-25.928-93.188-25.928-39.684 0-81.654 19.643-113.139 51.126-29.136 29.136-48.861 68.199-48.861 110.874 0 42.677 19.726 81.739 48.861 110.874 31.483 31.484 73.455 51.127 113.139 51.127 39.196 0 69.614-9.533 93.188-25.927 23.249-16.168 40.493-39.29 53.36-66.73 3.339-9.24 12.186-15.843 22.577-15.843h34.35l34.542-34.54.086-.089c9.372-9.372 24.569-9.372 33.94 0v.001l34.627 34.628h35.577l34.542-34.54.086-.089c9.372-9.372 24.568-9.372 33.94 0l-.001.001 34.627 34.628h38.267l71.169-71.169.13-.133c9.372-9.372 24.569-9.37 33.941.001l-.002.001 71.298 71.3h43.642l20.49-20.49.087-.09c9.372-9.372 24.568-9.372 33.94 0v.002l20.578 20.578h32.782l64.15-52.911-64.25-54.089H829.914c-9.233.153-18.124-5.057-22.223-13.987l21.812-10.013-21.75 9.938c-12.953-28.22-30.437-51.994-54.187-68.51z"/><path id="_475131192" class="fil1" d="M620.346 1502.5c21.95 0 41.826 8.9 56.215 23.287 14.387 14.387 23.287 34.263 23.287 56.214 0 21.953-8.9 41.83-23.287 56.215-14.387 14.387-34.264 23.288-56.215 23.288-21.95 0-41.828-8.901-56.215-23.288-14.385-14.388-23.286-34.265-23.286-56.215 0-21.95 8.9-41.827 23.286-56.213 14.387-14.387 34.264-23.288 56.215-23.288zm22.277 57.224a31.409 31.409 0 0 0-22.277-9.224c-8.7 0-16.578 3.527-22.277 9.226-5.697 5.697-9.224 13.575-9.224 22.275 0 8.701 3.525 16.578 9.224 22.277 5.699 5.699 13.577 9.226 22.277 9.226 8.7 0 16.578-3.527 22.277-9.226 5.699-5.699 9.225-13.577 9.225-22.277 0-8.7-3.526-16.578-9.225-22.277z"/></g></g></g><path style="fill:none" d="M0 0h2048v2048H0z"/></svg>