<svg xmlns="http://www.w3.org/2000/svg" viewBox="0 0 500 500"><g id="freepik--background-simple--inject-7"><path d="M231.47,338.74c-5.38-17.7-21.61-28.53-39.84-37.36-70.06-34-70.83-127.52-.12-165.59,28.65-15.44,63.64-20.11,99.6-4,37.15,18,24.51,78.74,32.21,98.77,6.11,30.92,23.9,62.19,19.2,93.44C340.41,373.54,239.74,386.27,231.47,338.74Z" style="fill:var(--theme-ui-colors-primary)"></path><path d="M231.47,338.74c-5.38-17.7-21.61-28.53-39.84-37.36-70.06-34-70.83-127.52-.12-165.59,28.65-15.44,63.64-20.11,99.6-4,37.15,18,24.51,78.74,32.21,98.77,6.11,30.92,23.9,62.19,19.2,93.44C340.41,373.54,239.74,386.27,231.47,338.74Z" style="fill:#fff;opacity:0.9"></path></g><g id="freepik--Shadow--inject-7"><ellipse id="freepik--path--inject-7" cx="250" cy="416.24" rx="193.89" ry="11.32" style="fill:#f5f5f5"></ellipse></g><g id="freepik--Character--inject-7"><polygon points="239.81 408.37 231.23 408.24 230.74 388.32 239.32 388.45 239.81 408.37" style="fill:#ffb573"></polygon><polygon points="294.85 408.4 286.26 408.4 282.91 388.51 291.5 388.51 294.85 408.4" style="fill:#ffb573"></polygon><path d="M285.26,406.47h10.47a.82.82,0,0,1,.77.59l2.19,7.63a1.18,1.18,0,0,1-1.16,1.53c-3.37-.06-5.84-.25-10.09-.25-2.61,0-7.21.27-10.82.27s-4.31-3.57-2.85-3.89c6.52-1.45,8.13-3.44,10.13-5.35A2,2,0,0,1,285.26,406.47Z" style="fill:#263238"></path><path d="M231,406.31l9.36.15a.64.64,0,0,1,.65.59l.73,7.66a1.41,1.41,0,0,1-1.43,1.51c-3.37-.11-8.22-.38-12.47-.45-5-.08-6.31.13-12.13,0-3.52-.05-4-3.63-2.53-3.93,6.89-1.36,9.42-1.44,15.67-4.92A4.36,4.36,0,0,1,231,406.31Z" style="fill:#263238"></path><path d="M234.43,156c-.61,5.9-1.36,11.75-2.2,17.62s-1.81,11.7-2.91,17.56c-.28,1.49-.54,2.89-.87,4.45-.19.82-.38,1.65-.59,2.45l-.71,2.35a72.48,72.48,0,0,1-3.58,8.75q-2,4.17-4.38,8.08a87.11,87.11,0,0,1-5.13,7.59l-5.59-3.21c2-5.35,4.08-10.81,5.71-16.18.82-2.69,1.55-5.36,2.1-8l.36-1.94.26-1.88.51-4.28c1.31-11.58,2.54-23.29,4.08-34.88Z" style="fill:#ffb573"></path><path d="M235.51,148.35c5.62,6,2.89,30.09,2.89,30.09L217,167.93a133,133,0,0,1,2.29-13.55C220.74,147.21,230,142.53,235.51,148.35Z" style="fill:var(--theme-ui-colors-primary)"></path><path d="M235.51,148.35c5.62,6,2.89,30.09,2.89,30.09L217,167.93a133,133,0,0,1,2.29-13.55C220.74,147.21,230,142.53,235.51,148.35Z" style="fill:#fff;opacity:0.30000000000000004"></path><path d="M210.51,218.54l-7.24,6.77,8,5.61s6.28-4.5,3.89-10.28Z" style="fill:#ffb573"></path><path d="M203.59,233.16l1.94.51a3.37,3.37,0,0,0,3.38-1l2.36-1.75-8-5.61-1.82,3A3.39,3.39,0,0,0,203.59,233.16Z" style="fill:#ffb573"></path><polygon points="230.75 388.32 231 398.59 239.58 398.73 239.33 388.46 230.75 388.32" style="opacity:0.2"></polygon><polygon points="291.5 388.52 282.91 388.52 284.64 398.77 293.23 398.77 291.5 388.52" style="opacity:0.2"></polygon><path d="M270.77,149.68c-2.23,31.19,4.16,60.9,4.43,67.45l-45.76,4c-10.5-36.12-8.4-60.23-6.82-69.61a7.22,7.22,0,0,1,5-5.74c.78-.24,1.65-.49,2.58-.74,1.22-.33,2.54-.65,3.92-.95.76-.17,1.54-.32,2.33-.47A171,171,0,0,1,256,141.9c1.23-.05,2.48-.06,3.7-.06s2.24,0,3.29.07l.89,0A7.23,7.23,0,0,1,270.77,149.68Z" style="fill:var(--theme-ui-colors-primary)"></path><path d="M270.77,149.68c-2.23,31.19,4.16,60.9,4.43,67.45l-45.76,4c-10.5-36.12-8.4-60.23-6.82-69.61a7.22,7.22,0,0,1,5-5.74c.78-.24,1.65-.49,2.58-.74,1.22-.33,2.54-.65,3.92-.95.76-.17,1.54-.32,2.33-.47A171,171,0,0,1,256,141.9c1.23-.05,2.48-.06,3.7-.06s2.24,0,3.29.07l.89,0A7.23,7.23,0,0,1,270.77,149.68Z" style="fill:#fff;opacity:0.4"></path><path d="M270.3,163.72l-6.94-.75a18.07,18.07,0,0,0,7.16,10.42C270.38,170.25,270.31,167,270.3,163.72Z" style="fill:var(--theme-ui-colors-primary);opacity:0.30000000000000004"></path><path d="M252.13,120.16c-.69,6.36-.92,17.94,3.82,21.74-3.11,3.67-7.22,8-14.63,8.87s-6.55-4.32-4.82-7.19c6.83-2.27,6.21-7.43,4.57-12.19Z" style="fill:#ffb573"></path><path d="M241.34,157.58c0,.86-.4,1.54-.86,1.54s-.82-.71-.81-1.56.4-1.54.85-1.53S241.35,156.73,241.34,157.58Z" style="fill:#fff"></path><path d="M241.41,164.58c.07.85-.25,1.57-.71,1.61s-.88-.63-.95-1.48.26-1.57.72-1.61S241.35,163.73,241.41,164.58Z" style="fill:#fff"></path><path d="M247.62,124.74l-6.55,6.64a19.66,19.66,0,0,1,.9,3.4c2.64-.61,6.05-3.86,6.09-6.67A9.49,9.49,0,0,0,247.62,124.74Z" style="opacity:0.2"></path><path d="M228.32,106.45s5.51-2.58,10.59-1.85c6.8,4.5.24,7.8-3.66,16.09-5.19,2.49-3.36-.15-3.36-.15S224.31,116.13,228.32,106.45Z" style="fill:#263238"></path><path d="M252.06,110.67c.21,8.52.77,13.5-3.13,18.22-5.88,7.1-16.68,4.13-19.43-4.16-2.48-7.46-2.41-20.14,5.59-24.23A11.63,11.63,0,0,1,252.06,110.67Z" style="fill:#ffb573"></path><path d="M244,104.11s4.67-3.9,9.77-4.49c7.73,2.62,2.22,7.48.55,16.49-4.38,3.74-3.28.72-3.28.72S242.53,114.49,244,104.11Z" style="fill:#263238"></path><path d="M245.63,105.11c-2.22,1.86-13.36,6.31-20.19,1-4-3.13-3.29-10.6,2.62-12.09-.42,1.2,1.47,4.83,7.85,2.33,6.06-2.36,19.12-3,18.37,5S245.63,105.11,245.63,105.11Z" style="fill:#263238"></path><path d="M251.91,99.71s3.4-1.66,4.44-4C257.89,100,253.94,101.1,251.91,99.71Z" style="fill:#263238"></path><path d="M256.7,119.68a8.08,8.08,0,0,1-4.73,4c-2.71.85-4.15-1.55-3.47-4.16.62-2.34,2.77-5.61,5.52-5.32S257.88,117.34,256.7,119.68Z" style="fill:#ffb573"></path><path d="M246.68,311.41c1-20.26,12.84-92.92,12.84-92.92l-30.08,2.61s-5.8,61.37-5.5,87.58c.3,27.26,3.89,86.94,3.89,86.94l14.54.22S245.6,333,246.68,311.41Z" style="fill:#263238"></path><path d="M250.66,241.38c-4.72,11.79-4.26,40.81-2.4,53.86,1.82-15.16,4.84-35.54,7.29-51.5C253.2,242.56,251.33,241.65,250.66,241.38Z" style="opacity:0.2"></path><path d="M245.67,219.69s12,67.34,17,92.28c5.42,27.32,19.07,83.88,19.07,83.88H296S288.24,337,283.3,310.31c-5.64-30.38-4.19-74.83-8.1-93.18Z" style="fill:#263238"></path><polygon points="280.08 396.19 296.94 396.19 296.58 390.66 277.52 390.3 280.08 396.19" style="fill:var(--theme-ui-colors-primary)"></polygon><polygon points="227.29 395.93 243.32 396.2 243.41 390.6 225.34 390.01 227.29 395.93" style="fill:var(--theme-ui-colors-primary)"></polygon><path d="M239.41,114.16c.06.69-.26,1.28-.71,1.32s-.87-.49-.93-1.18.26-1.28.71-1.32S239.35,113.47,239.41,114.16Z" style="fill:#263238"></path><path d="M231.61,114.83c.06.69-.26,1.28-.71,1.32s-.87-.49-.93-1.18.26-1.28.71-1.32S231.55,114.14,231.61,114.83Z" style="fill:#263238"></path><path d="M234.12,115a24.91,24.91,0,0,1-2.79,6.19c1.32,1,3.35.33,3.35.33Z" style="fill:#ed893e"></path><path d="M240.89,121.1a5.7,5.7,0,0,0-4,2,.21.21,0,0,0,0,.29.22.22,0,0,0,.29,0,5.48,5.48,0,0,1,4.6-1.86.21.21,0,0,0,.21-.19.2.2,0,0,0-.19-.22A5.36,5.36,0,0,0,240.89,121.1Z" style="fill:#263238"></path><path d="M238.22,109.58a.3.3,0,0,0-.17.12.4.4,0,0,0,0,.57,4,4,0,0,0,3.6.92.39.39,0,0,0,.27-.5.4.4,0,0,0-.5-.28h0a3.19,3.19,0,0,1-2.84-.76A.4.4,0,0,0,238.22,109.58Z" style="fill:#263238"></path><path d="M230.69,109.81a.4.4,0,0,0-.35.14,3.21,3.21,0,0,1-2.67,1.23.41.41,0,0,0-.1.81,4,4,0,0,0,3.39-1.51.41.41,0,0,0-.05-.58A.43.43,0,0,0,230.69,109.81Z" style="fill:#263238"></path><path d="M282.52,408a10,10,0,0,0,2.22-.31.18.18,0,0,0,.14-.17.2.2,0,0,0-.1-.2c-.33-.2-3.21-1.9-4.13-1.41a.59.59,0,0,0-.31.57,1.32,1.32,0,0,0,.49,1.08A2.79,2.79,0,0,0,282.52,408Zm1.61-.6c-1.44.29-2.56.24-3.06-.15a.92.92,0,0,1-.32-.74c0-.16.06-.21.11-.24C281.34,406,283,406.73,284.13,407.38Z" style="fill:var(--theme-ui-colors-primary)"></path><path d="M284.7,407.67a.18.18,0,0,0,.18-.22c0-.1-.38-2.58-1.43-3.4a1.16,1.16,0,0,0-.88-.26h0a.61.61,0,0,0-.61.54c-.12.95,1.72,2.84,2.64,3.32Zm-2-3.48a.8.8,0,0,1,.48.18,5.19,5.19,0,0,1,1.18,2.69c-.92-.67-2.11-2.09-2-2.66,0,0,0-.17.28-.2h.1Z" style="fill:var(--theme-ui-colors-primary)"></path><path d="M230.12,407.48a.18.18,0,0,0,.13-.16.2.2,0,0,0-.1-.21c-.39-.21-3.81-2-4.87-1.45a.65.65,0,0,0-.34.54h0a1.12,1.12,0,0,0,.37,1c.92.85,3.39.55,4.78.3ZM225.55,406c.65-.21,2.51.53,3.86,1.2-1.9.29-3.31.18-3.83-.3a.72.72,0,0,1-.23-.65.24.24,0,0,1,.13-.22Z" style="fill:var(--theme-ui-colors-primary)"></path><path d="M230.12,407.48l0,0a.22.22,0,0,0,.09-.19c0-.09-.21-2.41-1.29-3.33a1.49,1.49,0,0,0-1.12-.36h0c-.56.05-.72.33-.76.55-.18,1,1.85,2.86,2.88,3.34A.16.16,0,0,0,230.12,407.48ZM227.68,404l.21,0h0a1.11,1.11,0,0,1,.82.28,4.74,4.74,0,0,1,1.09,2.66c-1-.65-2.42-2.13-2.31-2.71C227.49,404.17,227.51,404.08,227.68,404Zm.19-.24h0Z" style="fill:var(--theme-ui-colors-primary)"></path><path d="M270.12,148.18c1,1.08,1.8,2,2.65,3.07s1.66,2.05,2.46,3.09c1.61,2.09,3.13,4.25,4.6,6.48a69.87,69.87,0,0,1,7.55,14.67,37.32,37.32,0,0,1,1.21,4.38c.09.38.15.79.22,1.18l.1.6,0,.24c0,.18,0,.36.06.54a8,8,0,0,1,0,1.09,7.73,7.73,0,0,1-1.23,3.55,8.66,8.66,0,0,1-1.65,1.88,12.45,12.45,0,0,1-2.72,1.74,20.87,20.87,0,0,1-2.3.95,32.47,32.47,0,0,1-4.19,1.13,60.87,60.87,0,0,1-8,1.11,68.71,68.71,0,0,1-7.87.2l-.84-6.39c4.65-1.57,9.47-3,13.71-4.77,1.05-.44,2.06-.91,2.93-1.36a10.81,10.81,0,0,0,1.1-.68c.29-.2.47-.42.38-.4a1.54,1.54,0,0,0-.43.45,3.75,3.75,0,0,0-.61,1.79c0,.21,0,.42,0,.62l0,.31,0,.06v-.06l-.09-.32c-.06-.22-.1-.43-.18-.67a26,26,0,0,0-1.06-2.81A47.58,47.58,0,0,0,272.9,174c-1.17-2-2.47-3.93-3.83-5.86s-2.8-3.86-4.25-5.76l-2.22-2.82-2.21-2.71Z" style="fill:#ffb573"></path><path d="M264,141.94c7.84.13,18,16.55,18,16.55l-16.09,13.37s-8.23-7.77-11.15-15.25C251.58,148.46,254.47,141.79,264,141.94Z" style="fill:var(--theme-ui-colors-primary)"></path><path d="M264,141.94c7.84.13,18,16.55,18,16.55l-16.09,13.37s-8.23-7.77-11.15-15.25C251.58,148.46,254.47,141.79,264,141.94Z" style="fill:#fff;opacity:0.4"></path><path d="M255,140.25s-2.23,5.51-14,10.55c2.33,1.55,4,5.82,4,5.82s15.34-6.44,13.41-15.3A11,11,0,0,0,255,140.25Z" style="fill:#fff"></path><path d="M237.52,156.69s1-4.13,3.51-5.89c-1.49-1.12-4.06-4.8-3.38-7.92a10,10,0,0,0-2.81.64S231,150.4,237.52,156.69Z" style="fill:#fff"></path><path d="M256.44,200.93a1.44,1.44,0,0,1-1.35-1l-23.25-65.42a1.43,1.43,0,1,1,2.7-1L257.79,199a1.43,1.43,0,0,1-.87,1.83A1.61,1.61,0,0,1,256.44,200.93Z" style="fill:#263238"></path><ellipse cx="229.05" cy="122.43" rx="17.5" ry="21.54" transform="matrix(0.94, -0.33, 0.33, 0.94, -27.78, 83.78)" style="fill:#263238"></ellipse><ellipse cx="228.34" cy="122.68" rx="16.74" ry="21.54" transform="translate(-27.9 83.55) rotate(-19.57)" style="fill:var(--theme-ui-colors-primary)"></ellipse><path d="M217.62,126.45a4.09,4.09,0,0,1-3.12-1.56.38.38,0,0,1,.09-.54.4.4,0,0,1,.55.08,3.29,3.29,0,0,0,5.84-2.07.4.4,0,0,1,.37-.42.39.39,0,0,1,.42.37,4,4,0,0,1-2.72,3.88A4.06,4.06,0,0,1,217.62,126.45Z" style="fill:#fff"></path><path d="M233.62,120.76a4.12,4.12,0,0,1-3.12-1.56.39.39,0,0,1,.09-.54.39.39,0,0,1,.55.09,3.3,3.3,0,0,0,5.85-2.08.39.39,0,0,1,.37-.42.38.38,0,0,1,.41.37,4,4,0,0,1-2.71,3.88A4.15,4.15,0,0,1,233.62,120.76Z" style="fill:#fff"></path><path d="M225.33,133.84a.4.4,0,0,1-.4-.37,5.71,5.71,0,0,1,10.16-3.61.39.39,0,0,1-.09.55.4.4,0,0,1-.55-.09,4.92,4.92,0,0,0-8.73,3.1.4.4,0,0,1-.37.42Z" style="fill:#fff"></path><path d="M215.29,121.09a.3.3,0,0,1-.26-.16.29.29,0,0,1,.13-.39,11.15,11.15,0,0,0,5.22-7.25.29.29,0,0,1,.34-.24.3.3,0,0,1,.23.35,11.51,11.51,0,0,1-5.52,7.66A.35.35,0,0,1,215.29,121.09Z" style="fill:#fff"></path><path d="M232.84,114.38a11.33,11.33,0,0,1-7.33-2.6.29.29,0,1,1,.38-.45,11.06,11.06,0,0,0,8.62,2.33.29.29,0,1,1,.12.57A9.06,9.06,0,0,1,232.84,114.38Z" style="fill:#fff"></path><path d="M241,124.53a2,2,0,0,1-1.79-1.52,5,5,0,0,1,.57-3.38.3.3,0,0,1,.39-.11,5,5,0,0,1,2.3,2.54h0a1.87,1.87,0,0,1-1.06,2.41A1.4,1.4,0,0,1,241,124.53Zm-.84-4.33a4.08,4.08,0,0,0-.38,2.65,1.15,1.15,0,1,0,2.13-.63A4.11,4.11,0,0,0,240.19,120.2Z" style="fill:#fff"></path><path d="M248,192.39l.79,1.79a3.37,3.37,0,0,0,2.86,2l4.54.31-1.45-10.19-4.69,1.51A3.37,3.37,0,0,0,248,192.39Z" style="fill:#ffb573"></path><path d="M263.43,187.25l-8.67-1,1.45,10.19s8-.08,8.78-4.26Z" style="fill:#ffb573"></path></g></svg>