<svg xmlns="http://www.w3.org/2000/svg" viewBox="0 0 48 48"><defs><style>.cls-1{fill:#201602}</style></defs><g id="Layer_2" data-name="Layer 2"><g id="layer_1-2" data-name="layer 1"><path class="cls-1" d="M5 42H1a1 1 0 0 1-1-1V1a1 1 0 0 1 1-1h28a1 1 0 0 1 1 1v4h-2V2H2v38h3z"/><path class="cls-1" d="M15 16H7a1 1 0 0 1-.92-.62 1 1 0 0 1 .21-1.09l8-8a1 1 0 0 1 1.09-.21A1 1 0 0 1 16 7v8a1 1 0 0 1-1 1zm-5.59-2H14V9.41zM20 41a1 1 0 0 1-.93-1.37l4-10a1 1 0 0 1 1.64-.34l6 6a1 1 0 0 1-.34 1.64l-10 4A.94.94 0 0 1 20 41zm4.37-9.22-2.58 6.43 6.43-2.58z"/><path class="cls-1" d="M30 37a1 1 0 0 1-.71-.29l-6-6a1 1 0 0 1 0-1.42l17-17a1 1 0 0 1 1.42 0l6 6a1 1 0 0 1 0 1.42l-17 17A1 1 0 0 1 30 37zm-4.59-7L30 34.59 45.59 19 41 14.41z"/><path class="cls-1" transform="rotate(-45 30.993 29.002)" d="M30 24.76h2v8.49h-2z"/><path class="cls-1" transform="rotate(-45 39.996 20.003)" d="M39 15.76h2v8.49h-2z"/><path class="cls-1" d="M37 48H7a1 1 0 0 1-1-1V15a1 1 0 0 1 .29-.71l8-8A1 1 0 0 1 15 6h22a1 1 0 0 1 1 1v6h-2V8H15.41L8 15.41V46h28V33h2v14a1 1 0 0 1-1 1z"/><path class="cls-1" d="M11 39h9v2h-9zM11 34h8v2h-8zM11 29h10v2H11zM11 24h6v2h-6zM19 24h6v2h-6zM11 19h10v2H11zM23 19h7v2h-7zM19 14h14v2H19z"/></g></g></svg>