<?xml version="1.0" encoding="utf-8"?>
<!-- Generator: Adobe Illustrator 24.3.0, SVG Export Plug-In . SVG Version: 6.00 Build 0)  -->
<svg version="1.1" id="Layer_1" xmlns="http://www.w3.org/2000/svg" fill="#4e596b" xmlns:xlink="http://www.w3.org/1999/xlink" x="0px" y="0px"
	 viewBox="0 0 300 300" enable-background="new 0 0 300 300" xml:space="preserve">
<g>
	<g>
		<g>
			<path fill="#F4F4F4" d="M81.508,270.991h136.623c5.172,0,9.364-4.193,9.364-9.364V100.661H72.144v160.966
				C72.144,266.798,76.335,270.991,81.508,270.991z"/>
		</g>
		<g>
			
				<ellipse transform="matrix(0.7071 -0.7071 0.7071 0.7071 -106.955 204.4319)" fill="#C1C1C1" cx="193.294" cy="231.322" rx="9.452" ry="9.452"/>
		</g>
		<g>
			
				<ellipse transform="matrix(0.1607 -0.987 0.987 0.1607 -102.5668 342.0328)" fill="#C1C1C1" cx="149.82" cy="231.322" rx="9.452" ry="9.452"/>
		</g>
		<g>
			
				<ellipse transform="matrix(0.4958 -0.8685 0.8685 0.4958 -147.2697 208.9975)" fill="#FFC67B" cx="106.346" cy="231.322" rx="9.452" ry="9.452"/>
		</g>
		<g>
			
				<ellipse transform="matrix(0.2288 -0.9735 0.9735 0.2288 -29.8676 329.9121)" fill="#C1C1C1" cx="193.294" cy="183.807" rx="9.452" ry="9.452"/>
		</g>
		<g>
			
				<ellipse transform="matrix(0.923 -0.3849 0.3849 0.923 -59.205 71.8264)" fill="#FFC67B" cx="149.82" cy="183.807" rx="9.452" ry="9.452"/>
		</g>
		<g>
			
				<ellipse transform="matrix(0.3036 -0.9528 0.9528 0.3036 -101.0744 229.3194)" fill="#C1C1C1" cx="106.346" cy="183.807" rx="9.452" ry="9.452"/>
		</g>
		<g>
			
				<ellipse transform="matrix(0.7071 -0.7071 0.7071 0.7071 -39.6702 176.5617)" fill="#FFC67B" cx="193.294" cy="136.167" rx="9.452" ry="9.452"/>
		</g>
		<g>
			
				<ellipse transform="matrix(0.1607 -0.987 0.987 0.1607 -8.6478 262.1649)" fill="#C1C1C1" cx="149.82" cy="136.167" rx="9.452" ry="9.452"/>
		</g>
		<g>
			
				<ellipse transform="matrix(0.4958 -0.8685 0.8685 0.4958 -64.6318 161.0171)" fill="#FFC67B" cx="106.346" cy="136.167" rx="9.452" ry="9.452"/>
		</g>
		<g>
			<path fill="#C1C1C1" d="M227.495,38.373c0-5.172-4.191-9.364-9.364-9.364H81.508c-5.174,0-9.364,4.192-9.364,9.364v62.289
				h155.351V38.373z"/>
		</g>
		<g>
			<path fill="#F9F9F9" d="M85.504,261.627V100.661H72.144v160.966c0,5.171,4.19,9.364,9.364,9.364h13.359
				C89.693,270.991,85.504,266.798,85.504,261.627z"/>
		</g>
		<g>
			<path fill="#D1D1D1" d="M94.867,29.009H81.508c-5.174,0-9.364,4.192-9.364,9.364v62.289h13.359V38.373
				C85.504,33.2,89.693,29.009,94.867,29.009z"/>
		</g>
		<g>
			<path fill="#F4F4F4" d="M93.409,52.207c0-3.849,3.119-6.968,6.968-6.968h98.884c3.847,0,6.967,3.119,6.967,6.968v25.256
				c0,3.847-3.12,6.967-6.967,6.967h-98.884c-3.849,0-6.968-3.119-6.968-6.967V52.207z"/>
		</g>
		<g>
			<g>
				<path fill="#FFC67B" d="M120.675,58.849h-0.065l-4.045,1.926l-0.815-3.719l5.611-2.61h4.109v21.203h-4.794V58.849z"/>
			</g>
			<g>
				<path fill="#FFC67B" d="M133.343,70.789c0.88,0.458,2.902,1.306,4.926,1.306c2.576,0,3.881-1.241,3.881-2.837
					c0-2.089-2.087-3.035-4.273-3.035h-2.024v-3.555h1.925c1.665-0.033,3.785-0.653,3.785-2.447c0-1.272-1.044-2.217-3.131-2.217
					c-1.73,0-3.558,0.75-4.438,1.272l-1.01-3.588c1.272-0.815,3.815-1.6,6.556-1.6c4.534,0,7.045,2.381,7.045,5.285
					c0,2.251-1.272,4.012-3.881,4.926v0.065c2.545,0.457,4.601,2.381,4.601,5.155c0,3.751-3.295,6.491-8.677,6.491
					c-2.74,0-5.057-0.718-6.296-1.501L133.343,70.789z"/>
			</g>
			<g>
				<path fill="#FFC67B" d="M164.733,58.524h-8.221l-0.456,3.263c0.456-0.065,0.848-0.065,1.37-0.065
					c2.022,0,4.076,0.456,5.577,1.531c1.598,1.077,2.577,2.839,2.577,5.319c0,3.946-3.393,7.436-9.102,7.436
					c-2.576,0-4.729-0.586-5.902-1.207l0.88-3.719c0.945,0.456,2.87,1.044,4.794,1.044c2.056,0,4.242-0.979,4.242-3.229
					c0-2.186-1.73-3.524-5.97-3.524c-1.175,0-1.991,0.065-2.871,0.195l1.403-11.123h11.678V58.524z"/>
			</g>
			<g>
				<path fill="#FFC67B" d="M183.89,54.446v3.131l-8.743,18.072h-5.252l8.743-17.06v-0.065h-9.721v-4.078H183.89z"/>
			</g>
		</g>
		<g>
			<path fill="#FFC67B" d="M48.33,157.466c0,3.127-2.533,5.66-5.66,5.66h-9.098c-3.127,0-5.66-2.533-5.66-5.66l0,0
				c0-3.127,2.533-5.66,5.66-5.66h9.098C45.797,151.806,48.33,154.339,48.33,157.466L48.33,157.466z"/>
		</g>
		<g>
			<path fill="#FFC67B" d="M55.549,130.877c-2.211,2.209-5.794,2.209-8.005,0l-6.433-6.434c-2.21-2.211-2.21-5.794,0-8.005l0,0
				c2.211-2.209,5.794-2.209,8.005,0l6.433,6.434C57.759,125.082,57.759,128.666,55.549,130.877L55.549,130.877z"/>
		</g>
		<g>
			<path fill="#FFC67B" d="M55.549,184.055c-2.211-2.21-5.794-2.21-8.005,0l-6.433,6.434c-2.21,2.211-2.21,5.794,0,8.005l0,0
				c2.211,2.209,5.794,2.209,8.005,0l6.433-6.434C57.759,189.849,57.759,186.266,55.549,184.055L55.549,184.055z"/>
		</g>
		<g>
			<path fill="#FFC67B" d="M251.67,157.466c0,3.127,2.531,5.66,5.66,5.66h9.098c3.125,0,5.66-2.533,5.66-5.66l0,0
				c0-3.127-2.534-5.66-5.66-5.66h-9.098C254.201,151.806,251.67,154.339,251.67,157.466L251.67,157.466z"/>
		</g>
		<g>
			<path fill="#FFC67B" d="M244.451,130.877c2.21,2.209,5.792,2.209,8.005,0l6.433-6.434c2.21-2.211,2.21-5.794,0-8.005l0,0
				c-2.212-2.209-5.795-2.209-8.005,0l-6.433,6.434C242.241,125.082,242.241,128.666,244.451,130.877L244.451,130.877z"/>
		</g>
		<g>
			<path fill="#FFC67B" d="M244.451,184.055c2.21-2.21,5.792-2.21,8.005,0l6.433,6.434c2.21,2.211,2.21,5.794,0,8.005l0,0
				c-2.212,2.209-5.795,2.209-8.005,0l-6.433-6.434C242.241,189.849,242.241,186.266,244.451,184.055L244.451,184.055z"/>
		</g>
	</g>
	<g>
		<g>
			<path fill="#161616" d="M193.294,245.312c-7.714,0-13.99-6.275-13.99-13.99c0-7.714,6.276-13.99,13.99-13.99
				c7.714,0,13.99,6.275,13.99,13.99C207.283,239.036,201.008,245.312,193.294,245.312z M193.294,226.407
				c-2.71,0-4.915,2.205-4.915,4.915c0,2.71,2.205,4.915,4.915,4.915c2.71,0,4.915-2.205,4.915-4.915
				C198.209,228.612,196.004,226.407,193.294,226.407z"/>
		</g>
		<g>
			<path fill="#161616" d="M149.82,245.312c-7.714,0-13.99-6.275-13.99-13.99c0-7.714,6.276-13.99,13.99-13.99
				s13.99,6.275,13.99,13.99C163.809,239.036,157.534,245.312,149.82,245.312z M149.82,226.407c-2.71,0-4.915,2.205-4.915,4.915
				c0,2.71,2.205,4.915,4.915,4.915c2.71,0,4.915-2.205,4.915-4.915C154.735,228.612,152.53,226.407,149.82,226.407z"/>
		</g>
		<g>
			
				<ellipse transform="matrix(0.4958 -0.8685 0.8685 0.4958 -147.2697 208.9975)" fill="#161616" cx="106.346" cy="231.322" rx="9.452" ry="9.452"/>
			<path fill="#161616" d="M106.346,245.312c-7.714,0-13.99-6.275-13.99-13.99c0-7.714,6.275-13.99,13.99-13.99
				c7.714,0,13.99,6.275,13.99,13.99C120.336,239.036,114.06,245.312,106.346,245.312z M106.346,226.407
				c-2.71,0-4.915,2.205-4.915,4.915c0,2.71,2.205,4.915,4.915,4.915c2.71,0,4.915-2.205,4.915-4.915
				C111.261,228.612,109.056,226.407,106.346,226.407z"/>
		</g>
		<g>
			<path fill="#161616" d="M193.294,197.797c-7.714,0-13.99-6.276-13.99-13.99c0-7.714,6.276-13.99,13.99-13.99
				c7.714,0,13.99,6.275,13.99,13.99C207.283,191.521,201.008,197.797,193.294,197.797z M193.294,178.892
				c-2.71,0-4.915,2.205-4.915,4.915s2.205,4.915,4.915,4.915c2.71,0,4.915-2.205,4.915-4.915S196.004,178.892,193.294,178.892z"/>
		</g>
		<g>
			
				<ellipse transform="matrix(0.923 -0.3849 0.3849 0.923 -59.205 71.8264)" fill="#161616" cx="149.82" cy="183.807" rx="9.452" ry="9.452"/>
			<path fill="#161616" d="M149.82,197.797c-7.714,0-13.99-6.276-13.99-13.99c0-7.714,6.276-13.99,13.99-13.99
				s13.99,6.275,13.99,13.99C163.809,191.521,157.534,197.797,149.82,197.797z M149.82,178.892c-2.71,0-4.915,2.205-4.915,4.915
				s2.205,4.915,4.915,4.915c2.71,0,4.915-2.205,4.915-4.915S152.53,178.892,149.82,178.892z"/>
		</g>
		<g>
			<path fill="#161616" d="M106.346,197.797c-7.714,0-13.99-6.276-13.99-13.99c0-7.714,6.275-13.99,13.99-13.99
				c7.714,0,13.99,6.275,13.99,13.99C120.336,191.521,114.06,197.797,106.346,197.797z M106.346,178.892
				c-2.71,0-4.915,2.205-4.915,4.915s2.205,4.915,4.915,4.915c2.71,0,4.915-2.205,4.915-4.915S109.056,178.892,106.346,178.892z"/>
		</g>
		<g>
			
				<ellipse transform="matrix(0.7071 -0.7071 0.7071 0.7071 -39.6702 176.5617)" fill="#161616" cx="193.294" cy="136.167" rx="9.452" ry="9.452"/>
			<path fill="#161616" d="M193.294,150.157c-7.714,0-13.99-6.275-13.99-13.99c0-7.714,6.276-13.99,13.99-13.99
				c7.714,0,13.99,6.276,13.99,13.99C207.283,143.881,201.008,150.157,193.294,150.157z M193.294,131.252
				c-2.71,0-4.915,2.205-4.915,4.915c0,2.71,2.205,4.915,4.915,4.915c2.71,0,4.915-2.205,4.915-4.915
				C198.209,133.457,196.004,131.252,193.294,131.252z"/>
		</g>
		<g>
			<path fill="#161616" d="M149.82,150.157c-7.714,0-13.99-6.275-13.99-13.99c0-7.714,6.276-13.99,13.99-13.99
				s13.99,6.276,13.99,13.99C163.809,143.881,157.534,150.157,149.82,150.157z M149.82,131.252c-2.71,0-4.915,2.205-4.915,4.915
				c0,2.71,2.205,4.915,4.915,4.915c2.71,0,4.915-2.205,4.915-4.915C154.735,133.457,152.53,131.252,149.82,131.252z"/>
		</g>
		<g>
			
				<ellipse transform="matrix(0.4958 -0.8685 0.8685 0.4958 -64.6318 161.0171)" fill="#161616" cx="106.346" cy="136.167" rx="9.452" ry="9.452"/>
			<path fill="#161616" d="M106.346,150.157c-7.714,0-13.99-6.275-13.99-13.99c0-7.714,6.275-13.99,13.99-13.99
				c7.714,0,13.99,6.276,13.99,13.99C120.336,143.881,114.06,150.157,106.346,150.157z M106.346,131.252
				c-2.71,0-4.915,2.205-4.915,4.915c0,2.71,2.205,4.915,4.915,4.915c2.71,0,4.915-2.205,4.915-4.915
				C111.261,133.457,109.056,131.252,106.346,131.252z"/>
		</g>
		<g>
			<path fill="#161616" d="M227.495,105.198H72.144c-2.506,0-4.537-2.031-4.537-4.537V38.373c0-7.665,6.236-13.901,13.901-13.901
				H95.57c2.506,0,4.537,2.031,4.537,4.537c0,2.506-2.031,4.537-4.537,4.537H81.508c-2.661,0-4.827,2.165-4.827,4.827v57.751
				h146.276V38.373c0-2.661-2.165-4.827-4.827-4.827h-101.01c-2.506,0-4.537-2.031-4.537-4.537c0-2.506,2.031-4.537,4.537-4.537
				h101.01c7.665,0,13.901,6.236,13.901,13.901v62.289C232.032,103.168,230.002,105.198,227.495,105.198z"/>
		</g>
		<g>
			<path fill="#161616" d="M218.131,275.528H81.508c-7.665,0-13.901-6.236-13.901-13.901V100.661c0-2.506,2.031-4.537,4.537-4.537
				h155.351c2.506,0,4.537,2.031,4.537,4.537v129.337c0,2.506-2.031,4.537-4.537,4.537c-2.506,0-4.537-2.031-4.537-4.537v-124.8
				H76.682v156.429c0,2.661,2.165,4.827,4.827,4.827h136.623c2.661,0,4.827-2.165,4.827-4.827V251.55
				c0-2.506,2.031-4.537,4.537-4.537c2.506,0,4.537,2.031,4.537,4.537v10.077C232.032,269.293,225.797,275.528,218.131,275.528z"/>
		</g>
		<g>
			<path fill="#161616" d="M199.262,88.967h-98.884c-6.344,0-11.505-5.161-11.505-11.504V52.207c0-6.343,5.162-11.505,11.505-11.505
				h98.884c6.343,0,11.504,5.162,11.504,11.505v25.256C210.766,83.806,205.605,88.967,199.262,88.967z M100.378,49.776
				c-1.341,0-2.431,1.09-2.431,2.431v25.256c0,1.34,1.09,2.43,2.431,2.43h98.884c1.34,0,2.43-1.09,2.43-2.43V52.207
				c0-1.341-1.09-2.431-2.43-2.431H100.378z"/>
		</g>
		<g>
			<g>
				<path fill="#161616" d="M120.675,58.849h-0.065l-4.045,1.926l-0.815-3.719l5.611-2.61h4.109v21.203h-4.794V58.849z"/>
			</g>
			<g>
				<path fill="#161616" d="M133.343,70.789c0.88,0.458,2.902,1.306,4.926,1.306c2.576,0,3.881-1.241,3.881-2.837
					c0-2.089-2.087-3.035-4.273-3.035h-2.024v-3.555h1.925c1.665-0.033,3.785-0.653,3.785-2.447c0-1.272-1.044-2.217-3.131-2.217
					c-1.73,0-3.558,0.75-4.438,1.272l-1.01-3.588c1.272-0.815,3.815-1.6,6.556-1.6c4.534,0,7.045,2.381,7.045,5.285
					c0,2.251-1.272,4.012-3.881,4.926v0.065c2.545,0.457,4.601,2.381,4.601,5.155c0,3.751-3.295,6.491-8.677,6.491
					c-2.74,0-5.057-0.718-6.296-1.501L133.343,70.789z"/>
			</g>
			<g>
				<path fill="#161616" d="M164.733,58.524h-8.221l-0.456,3.263c0.456-0.065,0.848-0.065,1.37-0.065
					c2.022,0,4.076,0.456,5.577,1.531c1.598,1.077,2.577,2.839,2.577,5.319c0,3.946-3.393,7.436-9.102,7.436
					c-2.576,0-4.729-0.586-5.902-1.207l0.88-3.719c0.945,0.456,2.87,1.044,4.794,1.044c2.056,0,4.242-0.979,4.242-3.229
					c0-2.186-1.73-3.524-5.97-3.524c-1.175,0-1.991,0.065-2.871,0.195l1.403-11.123h11.678V58.524z"/>
			</g>
			<g>
				<path fill="#161616" d="M183.89,54.446v3.131l-8.743,18.072h-5.252l8.743-17.06v-0.065h-9.721v-4.078H183.89z"/>
			</g>
		</g>
		<g>
			<path fill="#161616" d="M48.33,157.466c0,3.127-2.533,5.66-5.66,5.66h-9.098c-3.127,0-5.66-2.533-5.66-5.66l0,0
				c0-3.127,2.533-5.66,5.66-5.66h9.098C45.797,151.806,48.33,154.339,48.33,157.466L48.33,157.466z"/>
		</g>
		<g>
			<path fill="#161616" d="M55.549,130.877c-2.211,2.209-5.794,2.209-8.005,0l-6.433-6.434c-2.21-2.211-2.21-5.794,0-8.005l0,0
				c2.211-2.209,5.794-2.209,8.005,0l6.433,6.434C57.759,125.082,57.759,128.666,55.549,130.877L55.549,130.877z"/>
		</g>
		<g>
			<path fill="#161616" d="M55.549,184.055c-2.211-2.21-5.794-2.21-8.005,0l-6.433,6.434c-2.21,2.211-2.21,5.794,0,8.005l0,0
				c2.211,2.209,5.794,2.209,8.005,0l6.433-6.434C57.759,189.849,57.759,186.266,55.549,184.055L55.549,184.055z"/>
		</g>
		<g>
			<path fill="#161616" d="M251.668,157.466c0,3.127,2.533,5.66,5.66,5.66h9.098c3.127,0,5.66-2.533,5.66-5.66l0,0
				c0-3.127-2.533-5.66-5.66-5.66h-9.098C254.201,151.806,251.668,154.339,251.668,157.466L251.668,157.466z"/>
		</g>
		<g>
			<path fill="#161616" d="M244.449,130.877c2.211,2.209,5.794,2.209,8.005,0l6.433-6.434c2.21-2.211,2.21-5.794,0-8.005l0,0
				c-2.211-2.209-5.794-2.209-8.005,0l-6.434,6.434C242.239,125.082,242.239,128.666,244.449,130.877L244.449,130.877z"/>
		</g>
		<g>
			<path fill="#161616" d="M244.449,184.055c2.211-2.21,5.794-2.21,8.005,0l6.433,6.434c2.21,2.211,2.21,5.794,0,8.005l0,0
				c-2.211,2.209-5.794,2.209-8.005,0l-6.434-6.434C242.239,189.849,242.239,186.266,244.449,184.055L244.449,184.055z"/>
		</g>
	</g>
</g>
</svg>
