<svg xmlns="http://www.w3.org/2000/svg" fill="#4e596b" xml:space="preserve" width="655.359" height="655.359" style="shape-rendering:geometricPrecision;text-rendering:geometricPrecision;image-rendering:optimizeQuality;fill-rule:evenodd;clip-rule:evenodd" viewBox="0 0 6.827 6.827"><defs><style>.fil0{fill:#212121;fill-rule:nonzero}</style></defs><g id="Layer_x0020_1"><g id="_554249584"><path id="_554249440" class="fil0" d="M5.333 5.227v.566a.18.18 0 0 1-.18.18h-3.48a.18.18 0 0 1-.18-.18v-4.76a.18.18 0 0 1 .18-.18h3.48a.18.18 0 0 1 .18.18v4.194zm-.213.533V1.067H1.707V5.76H5.12z"/><path id="_554249728" class="fil0" d="M1.926 1.92H3.19v.213H1.926z"/><path id="_554249176" class="fil0" d="M1.926 2.693h1.785v.214H1.926z"/><path id="_554249872" class="fil0" d="M1.926 3.467h1.785v.213H1.926z"/><path id="_554249848" class="fil0" d="M1.926 4.24h1.785v.213H1.926z"/><path id="_554249800" class="fil0" d="M1.926 5.013h1.785v.214H1.926z"/><path id="_554249824" class="fil0" d="m4.112 4.592.617-.005V4.8l-.616.005z"/><path id="_554249200" class="fil0" d="m4.096 2.511.617-.005v.213l-.616.005z"/><path id="_554249320" class="fil0" d="m4.83 4.729-.299.838-.2.003-.318-.834-.006-.037-.02-2.476c0-.061.017-.119.045-.161a.187.187 0 0 1 .156-.091l.424-.003c.064 0 .12.033.157.088.029.043.047.1.047.161l.02 2.476-.006.036zm-.402.495.195-.55-.02-2.456a.086.086 0 0 0-.007-.038l-.388.003a.087.087 0 0 0-.008.039l.019 2.455.209.547z"/></g></g><path style="fill:none" d="M0 0h6.827v6.827H0z"/></svg>